<?xml version="1.0" standalone="no"?>
<!DOCTYPE svg PUBLIC "-//W3C//DTD SVG 20010904//EN"
 "http://www.w3.org/TR/2001/REC-SVG-20010904/DTD/svg10.dtd">
<svg version="1.0" xmlns="http://www.w3.org/2000/svg"
 width="200.000000pt" height="200.000000pt" viewBox="0 0 200.000000 200.000000"
 preserveAspectRatio="xMidYMid meet">

<g transform="translate(0.000000,200.000000) scale(0.100000,-0.100000)"
fill="#000000" stroke="none">
<path d="M1373 1621 c-18 -11 -37 -35 -44 -55 -11 -31 -16 -34 -40 -29 -32 6
-65 -10 -74 -37 -4 -11 -15 -20 -27 -20 -23 0 -88 -61 -88 -82 0 -8 -9 -23
-20 -33 -17 -15 -20 -31 -20 -105 0 -77 -2 -89 -23 -108 -22 -21 -23 -21 -70
-4 l-47 17 0 132 0 131 -31 7 c-17 4 -49 25 -70 47 l-39 41 -58 -25 -57 -24 0
-55 c0 -94 -50 -144 -144 -144 l-55 0 -25 -58 -24 -58 40 -39 c69 -66 69 -135
1 -201 l-41 -39 25 -58 24 -57 55 0 c80 0 130 -39 145 -113 l6 -31 -30 11
c-42 16 -81 1 -107 -39 -11 -18 -28 -32 -38 -33 -9 0 -25 -8 -35 -18 -10 -10
-32 -24 -49 -31 -62 -25 -66 -113 -7 -140 31 -14 194 -15 194 -1 0 6 -38 10
-93 10 -78 0 -97 3 -110 18 -34 38 -9 102 39 102 11 0 25 9 32 21 11 17 20 20
43 15 25 -5 29 -3 29 18 0 30 39 66 72 66 17 0 36 -11 53 -31 20 -24 29 -29
38 -20 17 17 62 13 80 -7 22 -25 21 -44 -3 -65 -11 -9 -20 -22 -20 -28 0 -6 9
-1 19 12 19 23 21 23 48 9 34 -19 43 -63 17 -91 -13 -14 -31 -19 -71 -19 -29
0 -53 -4 -53 -10 0 -5 25 -10 55 -10 46 0 60 4 80 25 31 30 33 77 5 105 -11
11 -24 20 -30 20 -5 0 -10 13 -10 29 0 31 27 55 74 67 l26 6 0 132 0 131 47
17 48 17 42 -41 c42 -41 43 -44 43 -109 0 -95 6 -99 157 -99 107 0 122 -2 138
-20 23 -25 47 -26 68 -2 22 24 21 45 -1 65 -25 22 -45 21 -67 -3 -13 -15 -31
-20 -67 -20 l-48 0 0 48 c0 36 5 54 20 67 25 23 26 47 2 68 -24 22 -45 21 -65
-1 -22 -25 -21 -45 3 -67 15 -13 20 -31 20 -67 l0 -49 -67 3 -68 3 -5 77 c-5
75 -6 79 -48 121 l-42 43 16 42 c16 40 19 42 59 42 55 0 73 21 77 90 l3 55 48
3 47 3 0 -64 c0 -77 16 -97 78 -97 l42 0 0 -63 c0 -80 15 -97 87 -97 37 0 54
-5 68 -20 23 -25 47 -26 68 -2 22 24 21 45 -1 65 -25 22 -45 21 -67 -3 -16
-17 -29 -20 -74 -18 l-56 3 -3 68 -3 67 59 0 c46 0 63 -4 77 -20 23 -25 47
-26 68 -2 22 24 21 45 -1 65 -25 22 -45 21 -67 -3 -17 -19 -29 -20 -134 -18
l-116 3 -3 68 -3 67 39 0 c26 0 45 -7 57 -20 23 -25 47 -26 68 -2 22 24 21 45
-1 65 -25 22 -45 21 -67 -3 -16 -17 -31 -20 -110 -20 -111 0 -122 -8 -127 -90
l-3 -55 -46 -3 c-45 -3 -46 -3 -62 39 -16 41 -16 42 8 71 22 27 25 39 25 117
0 48 3 90 6 94 3 3 23 -12 43 -34 l38 -39 176 0 c111 0 177 4 177 10 0 6 -65
10 -175 10 l-176 0 -27 27 c-24 25 -25 28 -9 31 11 2 29 -6 41 -17 28 -26 48
-27 71 -1 12 13 15 27 11 45 -4 17 -2 25 6 25 7 0 19 9 26 21 10 15 21 20 38
16 17 -3 25 1 29 14 4 10 21 23 38 28 25 7 27 9 10 10 -13 1 -32 -8 -43 -19
-11 -11 -29 -20 -40 -20 -11 0 -28 -9 -37 -20 -12 -13 -30 -20 -54 -20 -23 0
-42 -7 -54 -20 -21 -24 -55 -26 -55 -5 0 25 46 65 75 65 14 0 25 6 25 13 0 34
78 64 95 37 12 -20 25 -9 25 21 0 42 47 89 90 89 34 0 90 -46 90 -74 0 -20 9
-20 34 -1 30 23 74 18 101 -10 33 -32 31 -56 -5 -77 -17 -9 -30 -22 -30 -28 0
-5 9 -1 20 10 43 43 120 4 120 -60 0 -19 -9 -40 -25 -55 -21 -22 -33 -25 -100
-25 -43 0 -75 -4 -75 -10 0 -6 32 -10 76 -10 73 0 77 1 110 34 42 42 45 82 8
125 -14 17 -32 31 -40 31 -8 0 -14 9 -14 21 0 12 -16 37 -35 56 -29 29 -41 34
-68 31 -17 -3 -39 -8 -49 -12 -11 -5 -18 -1 -23 14 -8 26 -61 60 -95 60 -14 0
-39 -9 -57 -19z m-575 -160 c12 -16 37 -35 57 -42 26 -10 35 -19 35 -35 0 -21
-31 -42 -53 -36 -21 6 -120 -54 -161 -98 -70 -75 -80 -106 -81 -235 0 -102 2
-113 27 -156 51 -87 140 -151 241 -173 20 -5 27 -12 27 -31 0 -14 -6 -25 -14
-25 -7 0 -29 -11 -48 -24 -26 -18 -39 -21 -53 -14 -9 6 -33 8 -52 5 -32 -6
-34 -4 -29 16 10 43 -11 100 -53 140 -40 36 -59 42 -127 38 -27 -2 -32 2 -47
39 l-16 42 33 32 c70 65 70 167 0 232 l-33 32 16 42 c15 37 20 41 43 37 49
-10 103 10 143 52 37 40 42 59 38 127 -2 27 2 33 36 46 51 21 46 22 71 -11z
m92 -240 c0 -57 -1 -60 -35 -80 -98 -57 -98 -185 0 -242 33 -20 35 -24 35 -75
0 -49 -2 -54 -22 -54 -70 0 -168 88 -193 174 -19 63 -19 90 1 155 26 89 95
148 212 180 1 1 2 -26 2 -58z m565 -51 c0 -18 -6 -26 -23 -28 -24 -4 -38 18
-28 44 3 9 15 14 28 12 17 -2 23 -10 23 -28z m-500 -150 c0 -33 -2 -35 -35
-35 -29 0 -36 4 -38 23 -6 40 5 54 40 50 30 -3 33 -6 33 -38z m660 -170 c0
-18 -6 -26 -23 -28 -24 -4 -38 18 -28 44 3 9 15 14 28 12 17 -2 23 -10 23 -28z
m-320 -20 c0 -18 -6 -26 -23 -28 -24 -4 -38 18 -28 44 3 9 15 14 28 12 17 -2
23 -10 23 -28z"/>
<path d="M620 370 c0 -5 5 -10 10 -10 6 0 10 5 10 10 0 6 -4 10 -10 10 -5 0
-10 -4 -10 -10z"/>
<path d="M660 370 c0 -5 9 -10 20 -10 11 0 20 5 20 10 0 6 -9 10 -20 10 -11 0
-20 -4 -20 -10z"/>
</g>
</svg>
