<?xml version="1.0" standalone="no"?>
<!DOCTYPE svg PUBLIC "-//W3C//DTD SVG 20010904//EN"
 "http://www.w3.org/TR/2001/REC-SVG-20010904/DTD/svg10.dtd">
<svg version="1.0" xmlns="http://www.w3.org/2000/svg"
 width="100.000000pt" height="100.000000pt" viewBox="0 0 100.000000 100.000000"
 preserveAspectRatio="xMidYMid meet">

<g transform="translate(0.000000,100.000000) scale(0.100000,-0.100000)"
fill="#000000" stroke="none">
<path d="M672 795 c-11 -14 -27 -25 -35 -25 -8 0 -36 -20 -61 -45 -42 -41 -46
-48 -46 -93 0 -58 -13 -75 -46 -60 -22 10 -24 18 -24 74 0 60 -2 64 -29 79
-16 8 -31 19 -33 25 -2 7 -13 7 -36 -1 -27 -9 -32 -16 -32 -43 0 -40 -26 -66
-67 -66 -25 0 -33 -6 -43 -30 -11 -28 -11 -33 9 -51 27 -26 27 -72 0 -98 -20
-18 -20 -23 -9 -51 10 -25 18 -30 45 -30 34 0 65 -25 65 -52 0 -11 -6 -14 -19
-11 -11 3 -26 -4 -37 -15 -11 -11 -35 -29 -54 -39 -67 -38 -48 -84 34 -81 l51
1 -55 6 c-47 5 -55 9 -58 28 -2 17 6 26 35 39 21 10 44 26 51 36 16 21 35 23
51 4 6 -7 22 -11 36 -8 18 3 27 -1 32 -14 4 -11 13 -24 21 -30 25 -19 10 -48
-28 -55 -35 -6 -35 -6 -5 -8 50 -2 74 41 40 69 -22 18 -18 35 10 48 23 11 25
17 25 75 0 58 2 65 24 75 20 9 27 7 44 -11 12 -13 22 -39 24 -62 l3 -40 65 -3
c35 -2 70 -8 77 -14 17 -13 43 -3 43 17 0 20 -28 31 -43 16 -6 -6 -21 -11 -34
-11 -17 0 -23 6 -23 23 0 13 5 28 11 34 15 15 4 43 -16 43 -20 0 -31 -28 -16
-43 6 -6 11 -21 11 -34 0 -20 -5 -23 -35 -23 -34 0 -35 1 -35 38 0 28 -7 45
-24 61 -21 20 -23 27 -14 47 8 17 8 31 0 48 -9 19 -8 27 4 36 9 8 14 31 14 63
l0 50 24 -22 c21 -20 32 -22 112 -18 l89 3 -91 2 c-67 1 -95 6 -104 17 -14 17
0 21 17 4 15 -15 43 -4 43 16 0 21 -27 30 -45 15 -9 -7 -18 -10 -22 -7 -8 9
16 37 32 37 7 0 16 7 19 16 4 11 14 15 31 12 19 -4 25 -1 25 12 0 20 16 36 45
43 19 4 19 5 -2 6 -12 0 -30 -10 -41 -24z m-258 -79 c29 -24 28 -46 -2 -46
-25 0 -71 -33 -93 -66 -14 -21 -19 -47 -19 -96 0 -64 2 -70 36 -107 19 -22 51
-45 70 -51 40 -13 42 -22 12 -42 -27 -16 -68 -12 -68 7 0 44 -44 85 -91 85
-29 0 -34 26 -10 56 27 34 27 74 0 108 -24 30 -19 56 10 56 49 0 91 41 91 89
0 38 23 40 64 7z m26 -109 c0 -13 -11 -34 -25 -47 -14 -14 -25 -35 -25 -50 0
-15 11 -36 25 -50 30 -29 34 -70 6 -70 -27 0 -78 54 -86 90 -10 45 3 86 37
120 36 37 68 40 68 7z m35 -97 c0 -8 -8 -16 -17 -18 -13 -2 -18 3 -18 18 0 15
5 20 18 18 9 -2 17 -10 17 -18z m175 -95 c0 -8 -7 -15 -15 -15 -8 0 -15 7 -15
15 0 8 7 15 15 15 8 0 15 -7 15 -15z"/>
<path d="M773 783 c-7 -2 -13 -9 -13 -14 0 -5 8 -4 19 2 22 15 49 6 58 -18 4
-10 15 -24 25 -31 41 -30 15 -71 -46 -74 l-41 -1 38 -4 c41 -5 77 16 77 44 0
22 -70 103 -89 102 -9 0 -22 -3 -28 -6z"/>
<path d="M695 601 c-6 -6 -32 -11 -60 -13 -49 -3 -50 -4 -56 -40 -3 -20 -2
-35 3 -32 4 3 8 18 8 35 0 24 4 29 24 29 21 0 25 -5 28 -37 3 -33 7 -38 30
-41 23 -3 27 -8 30 -40 3 -33 6 -37 33 -40 17 -2 36 -8 42 -14 17 -13 43 -3
43 17 0 20 -28 31 -43 16 -6 -6 -24 -11 -39 -11 -25 0 -28 3 -28 35 0 32 3 35
28 35 15 0 33 -5 39 -11 15 -15 43 -4 43 16 0 20 -28 31 -43 16 -6 -6 -37 -11
-69 -11 l-58 0 0 35 c0 38 15 45 50 23 23 -15 46 1 37 26 -7 18 -28 21 -42 7z
m35 -16 c0 -8 -7 -15 -15 -15 -8 0 -15 7 -15 15 0 8 7 15 15 15 8 0 15 -7 15
-15z m80 -160 c0 -8 -7 -15 -15 -15 -8 0 -15 7 -15 15 0 8 7 15 15 15 8 0 15
-7 15 -15z"/>
</g>
</svg>
